<svg width="168" height="13" viewBox="0 0 168 13" fill="none" xmlns="http://www.w3.org/2000/svg">
<path d="M7.29887 6.84419L10.321 12.1289H7.53991L4.63826 7.11992H2.42504V12.1289H0V0.00732422H5.28652C8.1133 0.00732422 9.5273 1.17115 9.52852 3.4988C9.52852 5.24941 8.7853 6.36454 7.29887 6.84419ZM2.42504 4.85375H5.81974C6.79365 4.83793 7.29461 4.39297 7.32261 3.51889C7.29461 2.72271 6.80157 2.30819 5.84348 2.27532H2.42504V4.85375Z" fill="black"/>
<path d="M11.4897 12.1289L16.3398 0.00732422H18.763L23.604 12.1216H21.0274L20.297 10.2645H14.8041L14.0737 12.1216L11.4897 12.1289ZM17.6163 3.23949L15.7737 7.84671H19.4095L17.6163 3.23949Z" fill="black"/>
<path d="M24.8657 12.1289V0H29.5369C33.3108 0 35.1977 2.0227 35.1977 6.06809C35.1977 10.1135 33.3108 12.1337 29.5369 12.1289H24.8657ZM29.5369 9.71296C31.688 9.71296 32.766 8.49556 32.7709 6.06078C32.7757 3.626 31.6977 2.41652 29.5369 2.43235H27.2908V9.71296H29.5369Z" fill="black"/>
<path d="M43.4536 12.1289V0.00732422H48.7383C51.5675 0.00732422 52.9821 1.17115 52.9821 3.4988C52.9821 5.91289 51.5706 7.11992 48.7474 7.11992H45.8787V12.1289H43.4536ZM45.8787 4.85375H49.2733C50.2473 4.83793 50.7482 4.39297 50.7762 3.51889C50.7482 2.72271 50.2552 2.30819 49.2971 2.27532H45.8787V4.85375Z" fill="black"/>
<path d="M55.8909 10.3886C54.7332 9.22725 54.1543 7.78708 54.1543 6.06813C54.1543 4.34917 54.7332 2.9096 55.8909 1.74943C57.0486 0.589253 58.49 0.00977085 60.2151 0.0109882C61.9401 0.0122056 63.3809 0.591687 64.5374 1.74943C65.6976 2.90717 66.2771 4.34795 66.2759 6.07177C66.2747 7.7956 65.6952 9.23699 64.5374 10.3959C63.3797 11.5537 61.9389 12.1326 60.2151 12.1326C58.4913 12.1326 57.0499 11.5525 55.8909 10.3923V10.3886ZM60.2224 9.87003C60.712 9.88636 61.1993 9.79694 61.6512 9.60786C62.1031 9.41879 62.5089 9.1345 62.841 8.77438C63.4922 8.02278 63.8506 7.06166 63.8506 6.06721C63.8506 5.07276 63.4922 4.11163 62.841 3.36004C62.1678 2.6296 61.2894 2.26438 60.2059 2.26438C59.7163 2.24769 59.2289 2.33695 58.7769 2.52605C58.325 2.71515 57.9192 2.99963 57.5873 3.36004C56.9362 4.11163 56.5777 5.07276 56.5777 6.06721C56.5777 7.06166 56.9362 8.02278 57.5873 8.77438C58.2618 9.50481 59.1401 9.87003 60.2224 9.87003Z" fill="black"/>
<path d="M75.4485 3.2412L73.0234 12.1306H70.5984L67.3589 0.0090332H69.9446L72.0538 8.25198L74.2359 0.0090332H76.7413L78.8413 8.25198L80.9432 0.0090332H83.5289L80.2967 12.1306H77.8717L75.4485 3.2412Z" fill="black"/>
<path d="M85.291 12.1306V0.0163335L94.1969 0.0090332V2.27155H87.7161V4.85729H92.5716V7.11251H87.7161V9.86808H94.1804V12.1306H85.291Z" fill="black"/>
<path d="M103.935 6.84419L106.957 12.1289H104.178L101.284 7.11992H99.0614V12.1289H96.6382V0.00732422H101.923C104.752 0.00732422 106.166 1.17115 106.165 3.4988C106.165 5.24941 105.422 6.36454 103.935 6.84419ZM99.0614 4.85375H102.456C103.43 4.83793 103.931 4.39297 103.959 3.51889C103.931 2.72271 103.438 2.30819 102.48 2.27532H99.0614V4.85375Z" fill="black"/>
<path d="M122.481 5.73749C123.541 6.44723 124.104 7.37123 124.17 8.50949C124.062 10.7933 122.841 12.0028 120.509 12.1379H113.688V0.0163574H120.122C122.163 0.138097 123.241 1.32566 123.354 3.57905C123.315 4.65645 123.024 5.37593 122.481 5.73749ZM116.121 4.87192H119.516C120.489 4.85487 120.99 4.35149 121.018 3.36175C120.99 2.76888 120.497 2.45601 119.539 2.42314H116.121V4.87192ZM116.121 10.2388H120.082C121.217 10.223 121.799 9.63801 121.827 8.48392C121.8 7.70966 121.227 7.30427 120.105 7.27323H116.121V10.2388Z" fill="black"/>
<path d="M126.586 0H129.002V12.1307H126.586V0Z" fill="black"/>
<path d="M131.46 0.0090332H133.883V4.85729L137.924 0.0090332H140.649L135.905 5.66625L141.642 12.1306H138.49L133.883 6.89337V12.1306H131.46V0.0090332Z" fill="black"/>
<path d="M143.072 12.1306V0.0163335L151.978 0.0090332V2.27155H145.497V4.85729H150.355V7.11251H145.497V9.86808H151.962V12.1306H143.072Z" fill="black"/>
<path d="M160.98 0.410775C161.631 0.701663 162.221 1.11308 162.719 1.6233L161.103 3.23938C160.563 2.59295 159.809 2.26973 158.838 2.26973C157.868 2.26973 157.248 2.4986 156.979 2.95634C156.709 3.41408 156.709 3.80487 156.979 4.1287C157.25 4.45252 157.869 4.696 158.837 4.85913C159.836 4.95744 160.794 5.30462 161.625 5.86895C162.461 6.4326 162.879 7.33469 162.878 8.57521C162.878 9.54913 162.432 10.3843 161.541 11.0806C160.655 11.7792 159.554 12.1501 158.426 12.1306C157.3 12.1306 156.359 11.9693 155.604 11.6467C154.881 11.3441 154.223 10.9052 153.665 10.3538L155.281 8.73774C155.819 9.38417 156.732 9.76096 158.02 9.86809C159.098 9.86809 159.767 9.63921 160.029 9.18148C160.16 8.9763 160.229 8.73811 160.229 8.49487C160.229 8.25162 160.16 8.01343 160.029 7.80825C159.762 7.35052 159.093 7.06748 158.02 6.95913C157.077 6.8607 156.167 6.55716 155.354 6.06982C154.546 5.58286 154.142 4.74773 154.142 3.56443C154.142 2.49313 154.601 1.63243 155.519 0.982341C156.337 0.367448 157.329 0.0268083 158.353 0.0090332C159.477 0.0090332 160.35 0.143559 160.969 0.412602" fill="black"/>
<path d="M163.272 0.00366211H165.168V0.438272H164.467V2.26436H163.955V0.438272H163.265L163.272 0.00366211Z" fill="black"/>
<path d="M165.444 0.00366211H166.017L166.678 1.39148L167.336 0.00366211H167.907V2.27166H167.447V0.743225L166.841 2.04157H166.508L165.906 0.743225V2.27166H165.442L165.444 0.00366211Z" fill="black"/>
</svg>
